<svg width="135" height="42" viewBox="0 0 135 42" fill="none" xmlns="http://www.w3.org/2000/svg">
<path d="M134.923 37.7673C134.955 37.8102 134.978 37.8598 134.99 37.9125C135.002 37.9653 135.003 38.0201 134.993 38.0733C134.983 38.1264 134.962 38.1768 134.931 38.2209C134.9 38.2651 134.861 38.302 134.815 38.3293C134.726 38.3908 134.619 38.4157 134.513 38.3989C134.407 38.3821 134.312 38.325 134.246 38.239C134.246 38.239 131.911 34.8165 130.204 34.1441C129.743 33.9434 129.517 34.1441 128.948 34.6359C128.075 35.4388 126.741 36.6432 123.219 36.3822C123.167 36.381 123.116 36.369 123.069 36.3469C123.021 36.3247 122.979 36.293 122.944 36.2535C122.909 36.2141 122.882 36.1678 122.866 36.1174C122.849 36.0671 122.842 36.0137 122.846 35.9607C122.854 35.8471 122.904 35.7409 122.986 35.6642C123.068 35.5876 123.176 35.5463 123.288 35.5492C126.456 35.78 127.575 34.7664 128.409 34.0036C128.997 33.4717 129.547 32.9999 130.508 33.3612C132.47 34.1441 134.815 37.6167 134.923 37.7673ZM110.289 22.1706C109.442 21.9852 108.571 21.9378 107.709 22.0301C107.474 22.0426 107.238 22.0426 107.003 22.0301C106.895 22.0296 106.79 22.0706 106.71 22.1449C106.631 22.2192 106.581 22.3215 106.571 22.4315C106.563 22.5418 106.597 22.6509 106.667 22.7354C106.737 22.8199 106.836 22.8729 106.944 22.8832C107.218 22.9007 107.493 22.9007 107.768 22.8832C107.777 22.8884 107.787 22.8912 107.797 22.8912C107.808 22.8912 107.818 22.8884 107.827 22.8832C107.835 23.11 107.896 23.3316 108.003 23.5302C108.11 23.7289 108.262 23.8991 108.445 24.0273C108.976 24.3641 109.575 24.5734 110.197 24.6395C110.819 24.7055 111.448 24.6266 112.035 24.4087C112.284 24.348 112.515 24.2243 112.705 24.0489C112.895 23.8736 113.039 23.6522 113.124 23.4051C113.136 23.3524 113.137 23.2978 113.128 23.2446C113.119 23.1913 113.1 23.1404 113.072 23.0947C113.043 23.0491 113.007 23.0096 112.964 22.9784C112.92 22.9473 112.872 22.9251 112.82 22.9133C112.769 22.9014 112.715 22.9 112.663 22.9093C112.611 22.9185 112.561 22.9381 112.517 22.967C112.472 22.9959 112.434 23.0335 112.403 23.0777C112.373 23.1218 112.351 23.1717 112.339 23.2244C112.277 23.3363 112.193 23.4334 112.091 23.5096C111.99 23.5857 111.874 23.639 111.751 23.666C111.294 23.8355 110.806 23.9018 110.322 23.8602C109.838 23.8186 109.368 23.6702 108.945 23.4251C108.856 23.3644 108.78 23.2844 108.725 23.1908C108.669 23.0972 108.633 22.9922 108.621 22.8832C109.112 22.9076 109.601 22.9679 110.083 23.0638C110.323 23.1093 110.565 23.1395 110.809 23.1542C111.075 23.1286 111.338 23.0747 111.594 22.9936C112.194 22.8274 112.817 22.7596 113.438 22.7928C113.533 22.8419 113.643 22.8504 113.744 22.8165C113.846 22.7827 113.929 22.7092 113.978 22.6122C114.006 22.5651 114.024 22.5122 114.03 22.4574C114.036 22.4025 114.031 22.3469 114.014 22.2944C113.997 22.2419 113.97 22.1938 113.933 22.1534C113.896 22.1129 113.851 22.0811 113.801 22.0602C113.02 21.8755 112.204 21.9207 111.447 22.1906C111.162 22.2609 110.878 22.3011 110.789 22.3312C110.605 22.3123 110.421 22.2821 110.24 22.2408M110.24 21.0063C109.612 20.7765 108.94 20.7009 108.278 20.7855C108.175 20.8029 108.082 20.8608 108.019 20.947C107.957 21.0333 107.93 21.141 107.944 21.2472C107.954 21.302 107.974 21.3544 108.003 21.4012C108.032 21.4481 108.071 21.4886 108.115 21.5203C108.16 21.552 108.21 21.5744 108.264 21.5861C108.317 21.5978 108.372 21.5986 108.425 21.5884C108.974 21.5535 109.523 21.6285 110.044 21.8092C110.096 21.8276 110.151 21.8344 110.206 21.8294C110.261 21.8244 110.314 21.8076 110.362 21.7802C110.41 21.7527 110.452 21.7152 110.485 21.6701C110.518 21.6249 110.542 21.5732 110.554 21.5182C110.581 21.4118 110.567 21.2987 110.514 21.203C110.46 21.1074 110.373 21.0368 110.269 21.0063M111.663 21.6989C112.104 21.5592 112.564 21.4914 113.026 21.4981C113.132 21.4982 113.234 21.4566 113.311 21.3819C113.387 21.3071 113.433 21.205 113.438 21.0967C113.441 21.0418 113.433 20.9869 113.414 20.9353C113.396 20.8837 113.368 20.8365 113.331 20.7962C113.294 20.756 113.25 20.7237 113.201 20.7012C113.152 20.6786 113.099 20.6664 113.046 20.6651C112.481 20.6639 111.919 20.7484 111.378 20.916C111.28 20.9603 111.202 21.0404 111.158 21.1406C111.115 21.2407 111.109 21.3539 111.143 21.458C111.16 21.5097 111.187 21.5572 111.223 21.5976C111.259 21.6381 111.303 21.6706 111.352 21.6931C111.4 21.7157 111.453 21.7278 111.507 21.7288C111.56 21.7298 111.613 21.7196 111.663 21.6989ZM117.313 21.0465C117.947 19.1431 117.859 17.0658 117.068 15.2253C117.049 15.1754 117.02 15.13 116.983 15.0917C116.946 15.0534 116.902 15.0231 116.854 15.0025C116.805 14.9819 116.753 14.9715 116.701 14.9718C116.648 14.9722 116.596 14.9833 116.548 15.0045C116.449 15.0527 116.372 15.1375 116.332 15.2419C116.291 15.3463 116.292 15.4624 116.332 15.5666C117.017 17.2122 117.093 19.0562 116.548 20.7554C115.233 24.1377 114.184 26.2253 113.369 26.8676C112.388 27.6806 109.043 28.4133 106.002 26.9178C105.943 26.8677 105.855 26.8275 105.747 26.7573C105.411 26.5543 105.047 26.4053 104.668 26.3156C104.616 26.3024 104.562 26.2999 104.51 26.3085C104.457 26.3171 104.407 26.3366 104.362 26.3657C104.317 26.3948 104.278 26.4329 104.248 26.4778C104.218 26.5227 104.197 26.5734 104.187 26.6268C104.168 26.7354 104.188 26.8474 104.244 26.9417C104.3 27.036 104.388 27.106 104.491 27.1386C104.795 27.2029 105.085 27.3255 105.345 27.4999L105.698 27.6806C109.239 29.4269 112.879 28.4133 113.948 27.52C115.018 26.6268 115.959 24.6998 117.362 21.0465M114.517 15.145C114.708 15.1372 114.888 15.0527 115.019 14.9099C115.149 14.7672 115.219 14.5776 115.214 14.3823C115.217 14.222 115.172 14.0645 115.086 13.9306C115.42 14.01 115.748 14.114 116.067 14.2418C116.112 14.2687 116.162 14.2855 116.214 14.2909C116.266 14.2963 116.318 14.2902 116.368 14.273C116.417 14.2559 116.462 14.2281 116.5 14.1915C116.538 14.155 116.568 14.1105 116.587 14.0611C116.614 14.0136 116.63 13.9609 116.636 13.9065C116.641 13.852 116.635 13.797 116.619 13.745C116.602 13.6929 116.575 13.6451 116.539 13.6045C116.503 13.5638 116.46 13.5313 116.411 13.5091C115.571 13.0846 114.611 12.9814 113.703 13.218C113.431 13.3264 113.183 13.4886 112.973 13.6952C112.762 13.9019 112.594 14.149 112.477 14.4224C112.436 14.5266 112.436 14.6427 112.476 14.7471C112.516 14.8515 112.594 14.9363 112.693 14.9845C112.741 15.0059 112.794 15.0171 112.847 15.0176C112.901 15.0181 112.953 15.0077 113.003 14.9872C113.052 14.9667 113.097 14.9363 113.134 14.898C113.172 14.8596 113.202 14.8139 113.222 14.7637C113.338 14.4569 113.562 14.206 113.85 14.0611C113.81 14.1631 113.79 14.2723 113.791 14.3823C113.786 14.5743 113.853 14.761 113.98 14.9033C114.106 15.0455 114.281 15.1321 114.468 15.145M127.114 33.7226C127.512 33.4109 127.779 32.9547 127.859 32.4479C127.859 32.2472 127.859 32.0866 127.859 31.926C127.893 31.5733 127.817 31.2187 127.64 30.9136C127.464 30.6086 127.197 30.3691 126.878 30.2299C126.662 30.0894 126.545 30.0291 126.545 29.8485C126.563 29.6842 126.61 29.5246 126.682 29.3768C126.767 29.125 126.81 28.8603 126.81 28.5939C126.817 28.2993 126.757 28.0069 126.633 27.7408C126.238 27.044 125.642 26.4898 124.926 26.1551C125.514 25.2612 125.853 24.2203 125.907 23.1441C125.916 22.977 125.916 22.8094 125.907 22.6423C125.794 21.3804 125.198 20.2153 124.249 19.4005C123.768 18.9288 123.523 18.6879 123.523 18.166C123.523 17.875 123.523 17.5137 123.611 17.1624C123.611 16.5803 123.739 15.9279 123.739 15.2655C123.809 14.6166 123.715 13.9603 123.466 13.3593C123.217 12.7583 122.821 12.2328 122.316 11.833C122.602 11.2491 122.759 10.6086 122.778 9.95617C122.789 9.58586 122.715 9.21806 122.562 8.88229C122.386 8.54173 122.138 8.24584 121.836 8.01653C121.534 7.78722 121.185 7.63035 120.815 7.55747C120.659 7.12428 120.586 6.66419 120.6 6.20254C120.6 5.95162 120.6 5.69069 120.511 5.39963C120.429 5.06586 120.275 4.75534 120.059 4.49121C119.843 4.22708 119.572 4.01612 119.265 3.87407C118.896 3.69548 118.485 3.62599 118.078 3.67336C117.863 1.94708 117.294 1.66605 116.44 1.56569C115.859 1.52174 115.315 1.26098 114.91 0.833014C114.714 0.585014 114.463 0.388304 114.178 0.259151C113.893 0.129998 113.583 0.0721259 113.271 0.0903246C112.9 0.138421 112.555 0.311412 112.29 0.582102C111.91 0.229286 111.42 0.0234353 110.907 0C110.624 0.0116613 110.347 0.0858559 110.095 0.217526C109.842 0.349197 109.621 0.535201 109.445 0.762752C109.378 0.844201 109.341 0.9473 109.341 1.05382C109.341 1.16034 109.378 1.26344 109.445 1.34488C109.532 1.41762 109.643 1.45303 109.755 1.44366C109.866 1.4343 109.97 1.38087 110.044 1.29468C110.135 1.16067 110.255 1.04954 110.394 0.969589C110.534 0.88964 110.689 0.842956 110.848 0.833014C111.285 0.903244 111.686 1.12252 111.986 1.45527C112.025 1.50622 112.076 1.54537 112.135 1.56838C112.194 1.5914 112.258 1.59739 112.32 1.58575C112.387 1.58717 112.453 1.56907 112.51 1.53353C112.568 1.49798 112.614 1.44648 112.644 1.38504C112.714 1.26343 112.81 1.15852 112.923 1.07722C113.036 0.99592 113.165 0.940079 113.301 0.913323C113.585 0.913323 113.889 1.05383 114.282 1.41515C114.807 1.96644 115.498 2.32013 116.244 2.4188C116.597 2.4188 116.764 2.50911 116.882 2.65966C117.148 3.15415 117.283 3.71113 117.274 4.27552C117.275 4.34093 117.294 4.40472 117.329 4.45969C117.363 4.51466 117.412 4.55865 117.47 4.58668C117.529 4.62515 117.597 4.64558 117.666 4.64558C117.736 4.64558 117.804 4.62515 117.863 4.58668C118.014 4.50577 118.182 4.46349 118.353 4.46349C118.524 4.46349 118.692 4.50577 118.844 4.58668C119.036 4.66655 119.207 4.7904 119.345 4.94874C119.483 5.10709 119.583 5.29567 119.638 5.49997C119.638 5.75088 119.697 5.97169 119.717 6.2226C119.738 6.81226 119.882 7.39054 120.139 7.91877C120.163 7.97811 120.202 8.02985 120.252 8.06866C120.302 8.10747 120.361 8.13195 120.423 8.13957C120.706 8.17586 120.977 8.27798 121.215 8.43805C121.453 8.59812 121.652 8.81188 121.797 9.06294C121.917 9.49251 121.943 9.94416 121.871 10.3851C121.8 10.826 121.634 11.2452 121.384 11.6122C121.362 11.6662 121.351 11.7242 121.351 11.7828C121.351 11.8414 121.362 11.8994 121.384 11.9535C121.397 12.0093 121.424 12.0608 121.461 12.103C121.499 12.1452 121.547 12.1767 121.6 12.1943C123.18 12.937 122.954 15.1049 122.778 16.8713C122.778 17.2728 122.699 17.6742 122.67 17.9954C122.679 18.3675 122.773 18.7322 122.943 19.0613C123.113 19.3903 123.356 19.6747 123.651 19.8923C124.06 20.228 124.398 20.6462 124.642 21.121C124.887 21.5958 125.034 22.1171 125.073 22.6523C125.096 23.8565 124.715 25.0322 123.994 25.9844C123.954 26.0381 123.926 26.0998 123.91 26.1655C123.895 26.2312 123.894 26.2995 123.906 26.3658C123.956 26.4878 124.051 26.585 124.171 26.6368C124.883 26.8854 125.491 27.3736 125.897 28.0218C125.971 28.1783 126.009 28.3499 126.009 28.5237C126.009 28.6974 125.971 28.869 125.897 29.0255C125.456 30.1897 125.897 30.5711 126.466 30.8822C127.035 31.1934 127.143 31.2837 127.006 32.2773C126.991 32.4244 126.945 32.5664 126.87 32.693C126.795 32.8197 126.694 32.9279 126.574 33.01C125.436 33.8831 122.542 33.7025 121.522 33.5519C121.456 33.5476 121.389 33.5589 121.328 33.585C121.267 33.6111 121.212 33.6513 121.169 33.7025C121.123 33.7488 121.091 33.807 121.076 33.8706C121.06 33.9343 121.062 34.0011 121.08 34.0638C121.139 34.2337 121.151 34.4166 121.117 34.5931C121.082 34.7697 121.002 34.9336 120.884 35.0675C120.624 35.2766 120.322 35.4231 119.999 35.4961C119.677 35.5691 119.342 35.5666 119.02 35.489C118.95 35.4742 118.878 35.4775 118.809 35.4985C118.741 35.5196 118.678 35.5577 118.628 35.6094C118.583 35.6605 118.552 35.7221 118.536 35.7887C118.521 35.8553 118.522 35.9247 118.54 35.9908C118.697 36.6833 118.54 37.155 118.196 37.3758C118 37.4848 117.781 37.5418 117.559 37.5418C117.336 37.5418 117.116 37.4848 116.921 37.3758C116.802 37.243 116.721 37.0801 116.685 36.9041C116.66 36.7415 116.599 36.5867 116.507 36.4513C116.416 36.3158 116.295 36.2031 116.156 36.1213C116.015 36.0574 115.863 36.0243 115.709 36.0243C115.555 36.0243 115.403 36.0574 115.263 36.1213C114.645 36.3722 114.38 36.302 114.282 36.2317C114.202 36.1588 114.139 36.0689 114.096 35.9683C114.054 35.8678 114.034 35.759 114.037 35.6496C114.031 35.5659 113.998 35.4867 113.943 35.4247C113.887 35.3628 113.813 35.3217 113.732 35.3083C113.664 35.3083 112.957 35.1076 112.85 33.8932C112.9 32.8337 113.359 31.8378 114.125 31.1231L114.321 30.8722L114.38 30.7819C114.721 30.4468 114.941 30.0039 115.005 29.5249C115.069 29.0458 114.973 28.5587 114.733 28.1423C114.672 28.051 114.577 27.9882 114.471 27.9676C114.364 27.9469 114.254 27.97 114.164 28.0319C114.104 28.0623 114.054 28.1097 114.019 28.1683C113.984 28.2269 113.967 28.2945 113.968 28.3631C113.963 28.4428 113.988 28.5216 114.037 28.5839C114.155 28.7734 114.223 28.9915 114.233 29.2162C114.18 29.5943 114.012 29.9457 113.752 30.2198L113.664 30.3302L113.507 30.5109C112.665 31.3494 112.14 32.4658 112.025 33.6623C112.025 33.7527 112.025 33.8229 112.025 33.9132C112.019 34.3423 112.132 34.7644 112.353 35.1291C112.574 35.4939 112.893 35.7861 113.271 35.9707C113.296 36.1601 113.359 36.3421 113.457 36.5047C113.555 36.6673 113.686 36.8068 113.84 36.9142C114.112 37.0349 114.406 37.0912 114.702 37.0791C114.997 37.0669 115.286 36.9865 115.547 36.8439C115.625 36.8319 115.705 36.8319 115.783 36.8439C115.828 36.9384 115.867 37.0356 115.901 37.135C115.976 37.4355 116.125 37.7116 116.332 37.9379C116.659 38.173 117.043 38.3099 117.442 38.3329C117.841 38.356 118.238 38.2643 118.589 38.0684C118.849 37.9116 119.062 37.6843 119.204 37.4116C119.346 37.1388 119.411 36.8312 119.393 36.5227C119.402 36.4629 119.402 36.4019 119.393 36.3421C119.769 36.3758 120.148 36.33 120.505 36.2074C120.863 36.0848 121.193 35.8881 121.473 35.6295C121.774 35.3129 121.94 34.8869 121.934 34.4452C123.072 34.5556 125.76 34.6861 127.074 33.6623M106.355 13.0173C105.816 12.9546 105.271 13.0496 104.784 13.2913C104.296 13.5329 103.885 13.9112 103.598 14.3823C103.554 14.4838 103.55 14.5989 103.586 14.7036C103.623 14.8083 103.697 14.8945 103.795 14.9443C103.843 14.9695 103.897 14.9843 103.951 14.9878C104.005 14.9913 104.06 14.9834 104.111 14.9646C104.163 14.9459 104.21 14.9166 104.25 14.8786C104.29 14.8406 104.322 14.7946 104.344 14.7436C104.509 14.4261 104.781 14.1802 105.109 14.0511C105.099 14.1243 105.099 14.1987 105.109 14.2719C105.104 14.4725 105.176 14.6672 105.31 14.8137C105.444 14.9603 105.629 15.0469 105.825 15.0547C106.022 15.0469 106.208 14.9606 106.344 14.8144C106.48 14.6681 106.554 14.4735 106.551 14.2719C106.546 14.125 106.509 13.9811 106.443 13.8503C106.746 13.8588 107.04 13.9586 107.288 14.1371C107.536 14.3157 107.727 14.565 107.836 14.854C107.876 14.9583 107.952 15.0438 108.05 15.0939C108.148 15.1439 108.261 15.155 108.366 15.125C108.468 15.0843 108.552 15.0063 108.601 14.9062C108.65 14.806 108.66 14.6909 108.631 14.583C108.596 14.5072 108.557 14.4334 108.513 14.3622C108.763 13.9643 108.871 13.4906 108.819 13.0208C108.767 12.551 108.559 12.1139 108.229 11.7828C107.248 10.6487 105.345 11.1204 103.991 11.4516C103.939 11.4655 103.89 11.4899 103.848 11.5234C103.805 11.5568 103.77 11.5986 103.743 11.6462C103.717 11.6939 103.7 11.7466 103.693 11.801C103.687 11.8555 103.692 11.9107 103.706 11.9635C103.717 12.0171 103.738 12.068 103.768 12.1133C103.798 12.1586 103.836 12.1974 103.881 12.2273C103.926 12.2572 103.976 12.2776 104.028 12.2875C104.081 12.2973 104.135 12.2964 104.187 12.2846C105.345 11.9635 106.944 11.5821 107.64 12.3649C107.804 12.5216 107.923 12.722 107.982 12.9437C108.04 13.1653 108.038 13.3994 107.974 13.6195C107.508 13.269 106.952 13.0665 106.375 13.0374M115.204 37.8476C115.152 37.8577 115.103 37.8791 115.06 37.9102C115.017 37.9412 114.98 37.9814 114.953 38.0279C114.927 38.0744 114.91 38.1262 114.904 38.1799C114.898 38.2336 114.903 38.2879 114.92 38.3393C115.243 39.7444 115.204 40.3467 114.743 40.5273C113.84 40.9789 111.221 41.2198 108.062 41.1797C106.174 41.2392 104.287 41.0195 102.46 40.5273C103.617 37.1774 104.425 33.7125 104.874 30.1897L104.982 29.2965C105.81 29.6081 106.659 29.8596 107.523 30.0492C107.585 30.3595 107.615 30.6758 107.611 30.9927C107.581 31.96 107.499 32.9249 107.366 33.8831C107.162 35.4778 107.044 37.0827 107.012 38.6906C107.012 39.072 107.012 39.4333 107.061 39.7946C107.06 39.8495 107.07 39.9041 107.09 39.9549C107.111 40.0056 107.141 40.0514 107.18 40.0893C107.219 40.1271 107.265 40.1562 107.316 40.1746C107.366 40.193 107.42 40.2003 107.473 40.1961C107.581 40.1909 107.682 40.1428 107.756 40.0621C107.829 39.9815 107.869 39.8747 107.866 39.7645C107.805 37.8352 107.91 35.9041 108.18 33.9936C108.396 32.0465 108.572 30.5209 108.18 29.5374C108.157 29.4688 108.117 29.4076 108.063 29.36C108.01 29.3125 107.945 29.2802 107.876 29.2664C106.811 29.0352 105.765 28.7232 104.746 28.333C104.69 28.2985 104.626 28.2803 104.56 28.2803C104.494 28.2803 104.43 28.2985 104.373 28.333C104.321 28.3672 104.276 28.4128 104.242 28.4665C104.208 28.5202 104.186 28.5808 104.177 28.6441C104.177 28.6441 104.04 30.0593 104.04 30.0793C103.564 33.5999 102.746 37.0629 101.597 40.4169C101.584 40.4763 101.584 40.5381 101.597 40.5975C101.596 40.6888 101.616 40.779 101.655 40.8609C101.694 40.9429 101.752 41.0142 101.823 41.0693C102.627 41.812 106.787 41.9625 108.052 41.9926C109.318 42.0227 113.546 41.9926 115.106 41.27C116.332 40.6678 115.91 39.082 115.695 38.1185C115.681 38.0655 115.657 38.0157 115.624 37.9722C115.592 37.9287 115.551 37.8923 115.504 37.8652C115.458 37.8381 115.406 37.8208 115.353 37.8143C115.3 37.8078 115.246 37.8123 115.194 37.8275M113.458 29.156C113.417 29.0569 113.339 28.9783 113.242 28.937C113.145 28.8957 113.036 28.895 112.938 28.9352C111.805 29.3315 110.612 29.5151 109.416 29.4771C109.309 29.4771 109.207 29.5205 109.131 29.5977C109.056 29.6748 109.014 29.7795 109.014 29.8886C109.014 29.9978 109.056 30.1024 109.131 30.1796C109.207 30.2568 109.309 30.3001 109.416 30.3001C110.715 30.3463 112.012 30.149 113.242 29.718C113.341 29.6699 113.418 29.585 113.458 29.4806C113.499 29.3762 113.498 29.2602 113.458 29.156ZM112.8 11.4115C112.44 11.5977 112.129 11.87 111.893 12.2055C111.657 12.5409 111.504 12.9296 111.447 13.3385C111.431 14.5977 111.717 15.8417 112.281 16.9616C112.624 17.7947 112.977 18.6678 112.761 18.9689C112.545 19.27 112.281 19.4005 111.604 19.26C110.997 19.0953 110.354 19.1448 109.779 19.4005C109.568 19.486 109.333 19.486 109.122 19.4005C109.019 19.3269 108.949 19.2153 108.925 19.0894C108.975 19.0479 109.014 18.9957 109.041 18.9367C109.068 18.8777 109.082 18.8133 109.082 18.7481C109.082 18.6363 109.039 18.5291 108.962 18.4501C108.884 18.371 108.78 18.3266 108.67 18.3266C108.616 18.323 108.562 18.333 108.512 18.3557C108.463 18.3785 108.419 18.4133 108.386 18.4571C108.305 18.5215 108.239 18.6036 108.193 18.6974C108.148 18.7911 108.123 18.8942 108.121 18.999C108.115 19.2009 108.156 19.4013 108.239 19.5843C108.323 19.7673 108.447 19.9277 108.602 20.0529C108.816 20.1991 109.064 20.2845 109.321 20.3004C109.577 20.3162 109.834 20.262 110.063 20.1432C110.491 19.9487 110.973 19.9237 111.417 20.073C111.772 20.209 112.162 20.2143 112.52 20.0879C112.878 19.9615 113.182 19.7113 113.379 19.3804C113.504 19.1725 113.565 18.9315 113.556 18.6879C113.476 17.963 113.277 17.2571 112.967 16.6003C112.525 15.6971 112.256 14.7162 112.173 13.7098V13.3987C112.218 13.1182 112.324 12.8516 112.484 12.6188C112.644 12.386 112.852 12.1929 113.095 12.0538C114.252 11.5018 116.038 12.3449 116.038 12.3449C116.111 12.3849 116.195 12.4006 116.278 12.3898C116.36 12.379 116.438 12.3423 116.499 12.2846C116.561 12.2301 116.604 12.1573 116.623 12.0764C116.643 11.9955 116.637 11.9104 116.607 11.833C116.215 10.7839 115.977 9.68138 115.901 8.56112C115.896 8.45283 115.85 8.35069 115.773 8.27593C115.696 8.20117 115.594 8.15954 115.488 8.15966C115.383 8.16953 115.284 8.21902 115.212 8.29866C115.139 8.37829 115.098 8.48247 115.096 8.59122C115.151 9.51075 115.313 10.4203 115.577 11.3011C114.675 10.9396 113.673 10.9396 112.771 11.3011M103.52 8.8622C104.026 8.89242 104.532 8.78816 104.988 8.55955C105.443 8.33094 105.833 7.98576 106.12 7.55747C106.618 8.1011 107.282 8.45506 108.003 8.56112C108.712 8.51194 109.374 8.18045 109.848 7.63775C110.39 8.13924 111.081 8.43972 111.81 8.49085C112.16 8.47544 112.502 8.3767 112.809 8.20248C113.115 8.02826 113.378 7.78337 113.576 7.4872C113.816 7.7012 114.079 7.88639 114.36 8.0392C114.406 8.06759 114.456 8.08627 114.509 8.09406C114.562 8.10184 114.615 8.09858 114.667 8.0845C114.718 8.07042 114.766 8.04579 114.808 8.01212C114.85 7.97846 114.884 7.93646 114.91 7.88866C114.963 7.79416 114.977 7.68186 114.95 7.57646C114.922 7.47106 114.855 7.3812 114.763 7.32662C114.417 7.17212 114.126 6.91291 113.929 6.58393C113.891 6.51944 113.838 6.466 113.775 6.42888C113.711 6.39177 113.639 6.37225 113.566 6.37225C113.492 6.37225 113.42 6.39177 113.357 6.42888C113.293 6.466 113.24 6.51944 113.203 6.58393C112.791 7.32663 112.33 7.65784 111.81 7.65784C111.151 7.57531 110.539 7.26759 110.073 6.78464C110.031 6.7411 109.98 6.70704 109.925 6.68457C109.869 6.66211 109.809 6.65177 109.749 6.65419C109.689 6.65948 109.63 6.67843 109.578 6.70966C109.525 6.74089 109.48 6.78364 109.445 6.83484C109.273 7.07422 109.056 7.27636 108.806 7.42965C108.557 7.58294 108.281 7.68435 107.993 7.72807C107.35 7.58071 106.778 7.20794 106.375 6.67425C106.337 6.62361 106.288 6.58273 106.231 6.55486C106.175 6.52699 106.113 6.51288 106.051 6.51367C105.985 6.51442 105.921 6.53122 105.863 6.56264C105.805 6.59407 105.755 6.6392 105.717 6.69431C105.462 7.09577 104.736 8.03922 103.903 8.0894C103.409 5.80215 102.753 3.5547 101.94 1.36495H102.156C102.459 1.34549 102.762 1.40315 103.037 1.53276C103.313 1.66238 103.553 1.85992 103.736 2.10767C103.779 2.17104 103.839 2.22125 103.908 2.25303C103.977 2.28482 104.053 2.297 104.128 2.28832C104.201 2.26758 104.269 2.23078 104.326 2.1805C104.384 2.13023 104.43 2.06769 104.462 1.99725C104.589 1.54561 105.619 0.993599 106.689 1.05382C107.136 1.10093 107.565 1.26264 107.935 1.524C108.306 1.78537 108.606 2.13795 108.808 2.54924C108.858 2.64695 108.944 2.72062 109.046 2.7544C109.149 2.78818 109.261 2.7794 109.357 2.72992C109.452 2.67317 109.522 2.58045 109.552 2.47163C109.581 2.36281 109.567 2.24655 109.514 2.14779C109.244 1.60995 108.845 1.15102 108.354 0.813994C107.863 0.476966 107.297 0.272876 106.708 0.220804C105.718 0.182812 104.753 0.543113 104.02 1.22445C103.751 0.989229 103.439 0.811239 103.103 0.700942C102.766 0.590645 102.411 0.550244 102.058 0.582102C101.806 0.610982 101.557 0.661333 101.313 0.732643C101.268 0.742169 101.225 0.759137 101.185 0.782844C101.131 0.819023 101.087 0.868159 101.056 0.925912C101.026 0.983665 101.009 1.04825 101.009 1.11403C100.997 1.17369 100.997 1.23503 101.009 1.29468C101.009 1.29468 101.009 1.29468 101.058 1.29468C101.968 3.64616 102.69 6.06962 103.216 8.54102C103.238 8.62014 103.281 8.69166 103.34 8.74814C103.398 8.80461 103.471 8.84399 103.549 8.8622M112.261 39.7746C112.282 39.8227 112.312 39.8661 112.35 39.9023C112.388 39.9385 112.432 39.9667 112.48 39.9853C112.528 40.0039 112.58 40.0127 112.632 40.011C112.683 40.0092 112.734 39.9971 112.781 39.9753C112.878 39.9311 112.955 39.85 112.996 39.7489C113.036 39.6478 113.036 39.5347 112.997 39.4333C112.817 38.7429 112.734 38.0299 112.751 37.3156V37.1149C112.75 37.0608 112.738 37.0076 112.717 36.9582C112.696 36.9087 112.665 36.8641 112.627 36.8268C112.588 36.7895 112.543 36.7603 112.494 36.7409C112.445 36.7214 112.392 36.7121 112.339 36.7134C112.232 36.716 112.13 36.7616 112.054 36.8404C111.979 36.9192 111.937 37.0249 111.937 37.135V37.3156C111.889 38.1943 111.995 39.0748 112.251 39.9151" fill="#333333"/>
<path d="M54.6281 11.5518C54.4651 11.5504 54.3069 11.4947 54.1776 11.3932C54.0483 11.2917 53.9548 11.1499 53.9114 10.9892L53.2113 9.04603H48.2107L47.5107 10.9892C47.4759 11.1515 47.387 11.2964 47.2593 11.399C47.1316 11.5016 46.9729 11.5556 46.8105 11.5518C46.7211 11.5612 46.6308 11.5516 46.5452 11.5235C46.4596 11.4954 46.3806 11.4495 46.3132 11.3886C46.2459 11.3278 46.1917 11.2532 46.1539 11.1698C46.1161 11.0864 46.0956 10.9959 46.0938 10.904C46.1182 10.6993 46.1687 10.4987 46.2438 10.3074V10.1881L49.5776 0.949303C49.8109 0.386794 50.1443 0.0799539 50.6277 0.0799539C50.8662 0.0871256 51.0951 0.177149 51.2769 0.335161C51.4587 0.493174 51.5824 0.709771 51.6278 0.949303L54.9615 10.3074C55.0445 10.496 55.0953 10.6978 55.1116 10.904C55.1121 10.9951 55.0938 11.0853 55.0579 11.1687C55.0219 11.2521 54.9692 11.3268 54.9031 11.3879C54.837 11.4491 54.7591 11.4952 54.6744 11.5235C54.5897 11.5517 54.5 11.5613 54.4114 11.5518M48.4941 7.71646H52.5445L50.5444 1.90386L48.4941 7.71646ZM64.2626 11.5518C64.746 11.5518 64.9627 11.2961 64.9627 10.6824V0.881106C64.9787 0.771961 64.9716 0.660576 64.9416 0.554528C64.9117 0.448479 64.8599 0.350296 64.7894 0.266652C64.719 0.183008 64.6318 0.115873 64.5337 0.0698621C64.4356 0.0238516 64.3289 0 64.2209 0C64.113 0 64.0064 0.0238516 63.9083 0.0698621C63.8102 0.115873 63.7229 0.183008 63.6525 0.266652C63.5821 0.350296 63.5301 0.448479 63.5002 0.554528C63.4703 0.660576 63.4631 0.771961 63.4792 0.881106V8.82443L58.0453 0.829971C57.6452 0.267461 57.4618 0.0799539 57.0451 0.0799539C56.6284 0.0799539 56.345 0.386794 56.345 0.949303V10.7676C56.329 10.8768 56.3362 10.9882 56.3661 11.0942C56.396 11.2003 56.4479 11.2985 56.5183 11.3821C56.5887 11.4658 56.676 11.5329 56.7741 11.5789C56.8722 11.6249 56.9789 11.6487 57.0868 11.6487C57.1947 11.6487 57.3013 11.6249 57.3994 11.5789C57.4975 11.5329 57.5848 11.4658 57.6552 11.3821C57.7256 11.2985 57.7776 11.2003 57.8075 11.0942C57.8374 10.9882 57.8446 10.8768 57.8286 10.7676V2.85842L63.2626 10.8017C63.6293 11.3642 63.8459 11.5518 64.2626 11.5518ZM69.5466 11.5518C69.6472 11.5571 69.7477 11.5403 69.8413 11.5023C69.9349 11.4643 70.0195 11.4061 70.0891 11.3317C70.1588 11.2572 70.2119 11.1683 70.2448 11.0709C70.2777 10.9736 70.2897 10.8701 70.28 10.7676V1.63112H72.2469C72.349 1.64719 72.4534 1.64048 72.5527 1.61146C72.6521 1.58244 72.7442 1.53181 72.8226 1.463C72.9011 1.39419 72.964 1.3088 73.0072 1.21278C73.0503 1.11676 73.0727 1.01238 73.0727 0.906699C73.0727 0.801021 73.0503 0.696584 73.0072 0.600565C72.964 0.504545 72.9011 0.419213 72.8226 0.350403C72.7442 0.281593 72.6521 0.230911 72.5527 0.201888C72.4534 0.172864 72.349 0.166155 72.2469 0.182224H67.0463C66.9441 0.166155 66.8398 0.172864 66.7405 0.201888C66.6411 0.230911 66.5491 0.281593 66.4707 0.350403C66.3922 0.419213 66.3293 0.504545 66.2861 0.600565C66.2429 0.696584 66.2206 0.801021 66.2206 0.906699C66.2206 1.01238 66.2429 1.11676 66.2861 1.21278C66.3293 1.3088 66.3922 1.39419 66.4707 1.463C66.5491 1.53181 66.6411 1.58244 66.7405 1.61146C66.8398 1.64048 66.9441 1.64719 67.0463 1.63112H69.0465V10.8017C69.0365 10.9058 69.0489 11.0108 69.0828 11.1094C69.1167 11.2081 69.1713 11.2979 69.2428 11.3727C69.3143 11.4474 69.4009 11.5052 69.4966 11.542C69.5923 11.5789 69.6947 11.5938 69.7967 11.5858M78.131 11.5858C74.9473 11.5858 73.3137 8.70512 73.3137 5.85848C73.3137 3.01185 74.9806 0.114027 78.131 0.114027C81.2814 0.114027 83.0149 2.9948 83.0149 5.85848C83.0787 6.56594 83.0015 7.27925 82.7879 7.95529C82.5743 8.63132 82.2287 9.256 81.7721 9.79147C81.3155 10.3269 80.7573 10.762 80.1314 11.0705C79.5056 11.3789 78.825 11.5542 78.131 11.5858ZM78.131 1.44364C75.714 1.44364 74.7972 3.72777 74.7972 5.85848C74.7972 7.9892 75.6474 10.2563 78.131 10.2563C80.6146 10.2563 81.4647 7.97216 81.4647 5.85848C81.4647 3.74481 80.5979 1.44364 78.131 1.44364ZM92.6327 11.5858C93.0828 11.5858 93.2994 11.3301 93.2994 10.7165V0.915179C93.3118 0.811324 93.3017 0.705991 93.2699 0.606547C93.2381 0.507103 93.1855 0.416008 93.1156 0.339635C93.0457 0.263262 92.9602 0.203456 92.8652 0.164486C92.7703 0.125515 92.6682 0.108282 92.566 0.114027C92.4632 0.108663 92.3606 0.126005 92.265 0.16485C92.1693 0.203694 92.0829 0.263156 92.0117 0.339167C91.9406 0.415178 91.8863 0.505953 91.8525 0.605351C91.8187 0.704748 91.8062 0.810414 91.8159 0.915179V8.8585L86.3986 0.864043C86.0152 0.301534 85.8319 0.114027 85.3818 0.114027C84.9318 0.114027 84.7151 0.420867 84.7151 0.983376V10.8017C84.7051 10.9058 84.7174 11.0108 84.7513 11.1094C84.7852 11.2081 84.8399 11.2979 84.9114 11.3727C84.9829 11.4474 85.0694 11.5052 85.1651 11.542C85.2608 11.5789 85.3632 11.5938 85.4651 11.5858C85.5657 11.5912 85.6663 11.5743 85.76 11.5364C85.8536 11.4984 85.9381 11.4402 86.0077 11.3657C86.0773 11.2913 86.1304 11.2024 86.1634 11.1051C86.1963 11.0077 86.2083 10.9043 86.1986 10.8017V2.89249L91.6326 10.8358C91.9993 11.3983 92.1994 11.5858 92.6327 11.5858ZM96.2498 11.5858C96.3511 11.5943 96.453 11.5795 96.548 11.5425C96.643 11.5056 96.7288 11.4475 96.7991 11.3723C96.8693 11.2972 96.9223 11.207 96.9541 11.1083C96.986 11.0096 96.996 10.9049 96.9832 10.8017V0.915179C96.9991 0.808381 96.9922 0.699351 96.9631 0.595519C96.9339 0.491687 96.8832 0.395551 96.8143 0.313625C96.7455 0.2317 96.6602 0.165915 96.5642 0.120841C96.4682 0.0757671 96.3638 0.0524356 96.2581 0.0524356C96.1525 0.0524356 96.0481 0.0757671 95.9521 0.120841C95.8561 0.165915 95.7708 0.2317 95.702 0.313625C95.6331 0.395551 95.5824 0.491687 95.5532 0.595519C95.5241 0.699351 95.5172 0.808381 95.5331 0.915179V10.8017C95.5207 10.9033 95.5303 11.0065 95.5612 11.1039C95.5922 11.2013 95.6435 11.2905 95.7119 11.3653C95.7803 11.4401 95.864 11.4987 95.9569 11.5368C96.0498 11.5749 96.1498 11.5916 96.2498 11.5858ZM4.32211 41.8591C4.49133 41.8325 4.64566 41.7448 4.75714 41.6119C4.86862 41.479 4.92989 41.3097 4.92989 41.1346C4.92989 40.9595 4.86862 40.7903 4.75714 40.6574C4.64566 40.5245 4.49133 40.4368 4.32211 40.4102H1.50511V31.2566C1.50511 31.1559 1.48573 31.0561 1.44803 30.9631C1.41034 30.87 1.35511 30.7854 1.28545 30.7142C1.2158 30.643 1.1331 30.5865 1.0421 30.548C0.951094 30.5094 0.853601 30.4895 0.755098 30.4895C0.656595 30.4895 0.559 30.5094 0.467995 30.548C0.37699 30.5865 0.294291 30.643 0.224639 30.7142C0.154987 30.7854 0.0997579 30.87 0.0620624 30.9631C0.0243669 31.0561 0.00498765 31.1559 0.0049877 31.2566V41.0238C-0.00760811 41.1337 0.00372674 41.2451 0.0381541 41.3499C0.0725814 41.4548 0.129214 41.5505 0.204088 41.6303C0.278961 41.7102 0.370133 41.7721 0.471149 41.8116C0.572164 41.8512 0.680507 41.8674 0.788366 41.8591H4.32211ZM10.7896 41.8591C10.8917 41.8751 10.996 41.8684 11.0954 41.8394C11.1948 41.8104 11.2869 41.7597 11.3653 41.6909C11.4437 41.6221 11.5067 41.5368 11.5498 41.4407C11.593 41.3447 11.6154 41.2403 11.6154 41.1346C11.6154 41.0289 11.593 40.9245 11.5498 40.8285C11.5067 40.7325 11.4437 40.6471 11.3653 40.5783C11.2869 40.5095 11.1948 40.4589 11.0954 40.4298C10.996 40.4008 10.8917 40.3941 10.7896 40.4102H7.63916V36.9158H10.5396C10.7088 36.8892 10.863 36.8015 10.9745 36.6686C11.086 36.5357 11.1473 36.3664 11.1473 36.1913C11.1473 36.0163 11.086 35.847 10.9745 35.7141C10.863 35.5812 10.7088 35.4935 10.5396 35.4669H7.63916V31.9725H10.7896C10.8917 31.9886 10.996 31.9819 11.0954 31.9529C11.1948 31.9238 11.2869 31.8732 11.3653 31.8044C11.4437 31.7356 11.5067 31.6502 11.5498 31.5542C11.593 31.4582 11.6154 31.3538 11.6154 31.2481C11.6154 31.1424 11.593 31.038 11.5498 30.942C11.5067 30.8459 11.4437 30.7606 11.3653 30.6918C11.2869 30.623 11.1948 30.5724 11.0954 30.5433C10.996 30.5143 10.8917 30.5076 10.7896 30.5237H6.92242C6.81528 30.5184 6.70832 30.5366 6.60866 30.5771C6.509 30.6177 6.41901 30.6797 6.34476 30.7589C6.2705 30.838 6.2137 30.9325 6.17821 31.036C6.14272 31.1395 6.12938 31.2496 6.13904 31.3589V41.0238C6.12645 41.1337 6.13778 41.2451 6.17221 41.3499C6.20664 41.4548 6.26327 41.5505 6.33814 41.6303C6.41302 41.7102 6.50429 41.7721 6.6053 41.8116C6.70632 41.8512 6.81456 41.8674 6.92242 41.8591H10.7896ZM17.7737 41.8591C17.8759 41.8751 17.9802 41.8684 18.0796 41.8394C18.1789 41.8104 18.271 41.7597 18.3495 41.6909C18.4279 41.6221 18.4909 41.5368 18.534 41.4407C18.5772 41.3447 18.5995 41.2403 18.5995 41.1346C18.5995 41.0289 18.5772 40.9245 18.534 40.8285C18.4909 40.7325 18.4279 40.6471 18.3495 40.5783C18.271 40.5095 18.1789 40.4589 18.0796 40.4298C17.9802 40.4008 17.8759 40.3941 17.7737 40.4102H14.5901V36.9158H17.4904C17.6596 36.8892 17.8139 36.8015 17.9254 36.6686C18.0369 36.5357 18.0982 36.3664 18.0982 36.1913C18.0982 36.0163 18.0369 35.847 17.9254 35.7141C17.8139 35.5812 17.6596 35.4935 17.4904 35.4669H14.5901V31.9725H17.7737C17.8759 31.9886 17.9802 31.9819 18.0796 31.9529C18.1789 31.9238 18.271 31.8732 18.3495 31.8044C18.4279 31.7356 18.4909 31.6502 18.534 31.5542C18.5772 31.4582 18.5995 31.3538 18.5995 31.2481C18.5995 31.1424 18.5772 31.038 18.534 30.942C18.4909 30.8459 18.4279 30.7606 18.3495 30.6918C18.271 30.623 18.1789 30.5724 18.0796 30.5433C17.9802 30.5143 17.8759 30.5076 17.7737 30.5237H13.8733C13.7662 30.5184 13.6591 30.5366 13.5595 30.5771C13.4598 30.6177 13.3698 30.6797 13.2956 30.7589C13.2213 30.838 13.1645 30.9325 13.129 31.036C13.0935 31.1395 13.0802 31.2496 13.0898 31.3589V41.0238C13.0772 41.1337 13.0886 41.2451 13.123 41.3499C13.1574 41.4548 13.2141 41.5505 13.2889 41.6303C13.3638 41.7102 13.4551 41.7721 13.5561 41.8116C13.6571 41.8512 13.7655 41.8674 13.8733 41.8591H17.7737ZM24.2579 41.8591C24.8516 41.925 25.4521 41.8513 26.0137 41.6435C26.5752 41.4357 27.0828 41.0994 27.4978 40.6603C27.9128 40.2211 28.2241 39.6907 28.4079 39.1097C28.5917 38.5287 28.6432 37.9123 28.5584 37.3078V31.1884C28.5745 31.0793 28.5673 30.9679 28.5373 30.8619C28.5074 30.7558 28.4555 30.6576 28.385 30.574C28.3146 30.4903 28.2274 30.4232 28.1293 30.3772C28.0312 30.3312 27.9246 30.3073 27.8166 30.3073C27.7087 30.3073 27.602 30.3312 27.5039 30.3772C27.4058 30.4232 27.3186 30.4903 27.2481 30.574C27.1777 30.6576 27.1258 30.7558 27.0959 30.8619C27.066 30.9679 27.0588 31.0793 27.0749 31.1884V37.8363C27.0202 38.5642 26.6987 39.2442 26.1749 39.7403C25.6511 40.2363 24.9635 40.512 24.2495 40.512C23.5356 40.512 22.848 40.2363 22.3241 39.7403C21.8003 39.2442 21.4789 38.5642 21.4242 37.8363V31.1884C21.4389 31.087 21.4317 30.9835 21.4029 30.8853C21.3742 30.787 21.3246 30.6965 21.2578 30.6201C21.191 30.5436 21.1085 30.4831 21.0163 30.4429C20.9241 30.4027 20.8243 30.3837 20.7241 30.3873C20.6206 30.3789 20.5166 30.3942 20.4196 30.432C20.3226 30.4698 20.2349 30.5292 20.1631 30.6059C20.0913 30.6825 20.0371 30.7746 20.0044 30.8754C19.9717 30.9761 19.9613 31.0831 19.974 31.1884V37.4272C19.8897 38.0301 19.941 38.6448 20.1239 39.2244C20.3068 39.804 20.6165 40.3334 21.0295 40.7722C21.4426 41.211 21.948 41.5477 22.5074 41.7567C23.0668 41.9657 23.6655 42.0416 24.2579 41.9784M39.2597 41.9784C39.3889 41.9877 39.5186 41.9707 39.6414 41.9286C39.7642 41.8864 39.8776 41.8199 39.9752 41.7328C40.0728 41.6457 40.1526 41.5397 40.21 41.421C40.2674 41.3022 40.3013 41.173 40.3098 41.0409L41.9767 31.9044C41.9901 31.6659 41.9901 31.4269 41.9767 31.1884C41.982 31.0945 41.9673 31.0005 41.9335 30.913C41.8998 30.8255 41.8478 30.7464 41.7811 30.6816C41.7145 30.6167 41.6349 30.5674 41.5477 30.5372C41.4606 30.507 41.3681 30.4965 41.2766 30.5066C41.1811 30.4973 41.0847 30.5076 40.9932 30.5371C40.9017 30.5665 40.8169 30.6145 40.7438 30.6781C40.6707 30.7417 40.611 30.8196 40.5679 30.9073C40.5248 30.9949 40.4994 31.0905 40.4931 31.1884L39.1263 39.967L36.626 31.1202C36.605 30.9408 36.5169 30.7767 36.3802 30.6623C36.2434 30.5479 36.0687 30.4921 35.8926 30.5066C35.7146 30.4918 35.5379 30.547 35.3984 30.6611C35.259 30.7752 35.1674 30.9394 35.1424 31.1202L32.6922 39.9329L31.2754 31.1884C31.2715 31.0897 31.2476 30.9928 31.2053 30.904C31.163 30.8151 31.1032 30.7362 31.0296 30.6722C30.956 30.6081 30.8702 30.5603 30.7777 30.5318C30.6852 30.5033 30.5879 30.4948 30.4919 30.5066C30.4025 30.4988 30.3124 30.5111 30.228 30.5427C30.1437 30.5742 30.0671 30.6241 30.0036 30.689C29.9401 30.754 29.8913 30.8324 29.8604 30.9186C29.8296 31.0049 29.8175 31.0969 29.8251 31.1884C29.8154 31.4301 29.8436 31.6718 29.9086 31.9044L31.5754 41.0409C31.5926 41.3047 31.7106 41.551 31.904 41.7264C32.0975 41.9019 32.3507 41.9924 32.6089 41.9784C33.1756 41.9784 33.509 41.842 33.7257 41.0409L35.9259 32.9783L38.1095 41.0409C38.3429 41.842 38.7096 41.9784 39.2263 41.9784M48.2608 41.9784C48.43 41.9518 48.5842 41.8641 48.6957 41.7312C48.8072 41.5983 48.8685 41.429 48.8685 41.2539C48.8685 41.0789 48.8072 40.9096 48.6957 40.7767C48.5842 40.6438 48.43 40.5561 48.2608 40.5295H45.0603V36.9158H47.9607C48.0628 36.9319 48.1672 36.9252 48.2666 36.8962C48.3659 36.8671 48.458 36.8165 48.5364 36.7476C48.6148 36.6788 48.6778 36.5935 48.7209 36.4975C48.7641 36.4015 48.7865 36.297 48.7865 36.1913C48.7865 36.0857 48.7641 35.9812 48.7209 35.8852C48.6778 35.7892 48.6148 35.7039 48.5364 35.6351C48.458 35.5662 48.3659 35.5156 48.2666 35.4866C48.1672 35.4576 48.0628 35.4509 47.9607 35.4669H45.0603V31.9725H48.2608C48.43 31.9459 48.5842 31.8583 48.6957 31.7254C48.8072 31.5925 48.8685 31.4232 48.8685 31.2481C48.8685 31.073 48.8072 30.9037 48.6957 30.7708C48.5842 30.6379 48.43 30.5503 48.2608 30.5237H44.3936C44.2845 30.5161 44.175 30.5325 44.0726 30.5718C43.9701 30.6111 43.8771 30.6724 43.7997 30.7515C43.7223 30.8306 43.6624 30.9258 43.624 31.0306C43.5856 31.1353 43.5694 31.2473 43.5768 31.3589V41.0238C43.5665 41.1361 43.5806 41.2494 43.618 41.3555C43.6554 41.4616 43.7153 41.558 43.7933 41.6377C43.8713 41.7175 43.9655 41.7787 44.0693 41.8169C44.1731 41.8552 44.2838 41.8696 44.3936 41.8591L48.2608 41.9784ZM58.4786 41.9784C58.962 41.9784 59.1954 41.7227 59.1954 41.1091V31.3078C59.2051 31.203 59.1926 31.0973 59.1588 30.9979C59.125 30.8985 59.0707 30.8077 58.9996 30.7317C58.9284 30.6557 58.842 30.5963 58.7463 30.5574C58.6507 30.5186 58.5481 30.5012 58.4453 30.5066C58.3432 30.5009 58.241 30.5181 58.1461 30.5571C58.0512 30.596 57.9656 30.6558 57.8957 30.7322C57.8258 30.8085 57.7732 30.8996 57.7414 30.9991C57.7096 31.0985 57.6995 31.2039 57.7119 31.3078V39.1318L52.3779 31.2055C51.9612 30.643 51.7779 30.4555 51.3778 30.4555C50.9778 30.4555 50.661 30.7623 50.661 31.3248V41.1431C50.661 41.2439 50.6804 41.3436 50.7181 41.4367C50.7558 41.5297 50.8111 41.6143 50.8807 41.6855C50.9504 41.7568 51.0331 41.8132 51.1241 41.8518C51.2151 41.8903 51.3126 41.9102 51.4111 41.9102C51.5096 41.9102 51.6072 41.8903 51.6982 41.8518C51.7892 41.8132 51.8719 41.7568 51.9415 41.6855C52.0112 41.6143 52.0664 41.5297 52.1041 41.4367C52.1418 41.3436 52.1612 41.2439 52.1612 41.1431V33.2339L57.5785 41.1773C57.9619 41.7398 58.1785 41.9273 58.5786 41.9273M69.3299 41.9273C69.7799 41.9273 70.08 41.6375 70.08 41.0579V31.3589C70.08 30.7964 69.7799 30.4555 69.3299 30.4555C68.8798 30.4555 68.5798 30.7964 68.5798 31.3589V35.5181H62.9791V31.3589C62.9791 30.7964 62.6791 30.4555 62.229 30.4555C61.779 30.4555 61.479 30.7964 61.479 31.3589V41.0579C61.479 41.6375 61.7456 41.9273 62.229 41.9273C62.7124 41.9273 62.9791 41.6375 62.9791 41.0579V36.8476H68.5798V41.0579C68.5798 41.6375 68.8465 41.9273 69.3299 41.9273ZM76.5474 41.9273C73.3471 41.9273 71.6802 39.0465 71.6802 36.1999C71.6802 33.3532 73.3471 30.4555 76.5474 30.4555C79.7478 30.4555 81.3814 33.3362 81.3814 36.1999C81.3814 39.0636 79.7145 41.9273 76.5474 41.9273ZM76.5474 31.785C74.1305 31.785 73.2137 34.0692 73.2137 36.1999C73.2137 38.3306 74.0638 40.5977 76.5474 40.5977C79.0311 40.5977 79.8812 38.3306 79.8812 36.1999C79.8812 34.0692 79.0311 31.785 76.5474 31.785ZM87.7654 41.8591C87.8676 41.8751 87.9719 41.8684 88.0712 41.8394C88.1706 41.8104 88.2627 41.7597 88.3411 41.6909C88.4196 41.6221 88.4825 41.5368 88.5257 41.4407C88.5689 41.3447 88.5912 41.2403 88.5912 41.1346C88.5912 41.0289 88.5689 40.9245 88.5257 40.8285C88.4825 40.7325 88.4196 40.6471 88.3411 40.5783C88.2627 40.5095 88.1706 40.4589 88.0712 40.4298C87.9719 40.4008 87.8676 40.3941 87.7654 40.4102H84.5817V36.9158H87.4821C87.5842 36.9319 87.6885 36.9252 87.7879 36.8962C87.8873 36.8671 87.9794 36.8165 88.0578 36.7476C88.1362 36.6788 88.1992 36.5935 88.2424 36.4975C88.2855 36.4015 88.3078 36.297 88.3078 36.1913C88.3078 36.0857 88.2855 35.9812 88.2424 35.8852C88.1992 35.7892 88.1362 35.7039 88.0578 35.6351C87.9794 35.5662 87.8873 35.5156 87.7879 35.4866C87.6885 35.4576 87.5842 35.4509 87.4821 35.4669H84.5817V31.9725H87.7654C87.8676 31.9886 87.9719 31.9819 88.0712 31.9529C88.1706 31.9238 88.2627 31.8732 88.3411 31.8044C88.4196 31.7356 88.4825 31.6502 88.5257 31.5542C88.5689 31.4582 88.5912 31.3538 88.5912 31.2481C88.5912 31.1424 88.5689 31.038 88.5257 30.942C88.4825 30.8459 88.4196 30.7606 88.3411 30.6918C88.2627 30.623 88.1706 30.5724 88.0712 30.5433C87.9719 30.5143 87.8676 30.5076 87.7654 30.5237H83.8983C83.7918 30.518 83.6854 30.5361 83.5864 30.5768C83.4875 30.6175 83.3984 30.6798 83.3254 30.7593C83.2524 30.8388 83.1972 30.9337 83.1637 31.0372C83.1303 31.1408 83.1193 31.2506 83.1316 31.3589V41.0238C83.1162 41.1327 83.125 41.2438 83.1573 41.3488C83.1897 41.4537 83.2447 41.5499 83.3184 41.6301C83.392 41.7104 83.4824 41.7726 83.5828 41.8122C83.6832 41.8518 83.791 41.8679 83.8983 41.8591H87.7654ZM97.2499 41.8591C97.3432 41.866 97.437 41.8537 97.5256 41.823C97.6142 41.7922 97.6958 41.7437 97.7657 41.6801C97.8356 41.6166 97.8924 41.5393 97.9326 41.4529C97.9729 41.3665 97.9958 41.2728 98 41.1773C97.9963 41.0613 97.9674 40.9477 97.9156 40.8445C97.8637 40.7413 97.79 40.6512 97.7 40.5807L92.866 35.7908L97.2833 31.7168C97.3816 31.6348 97.46 31.5305 97.5121 31.4122C97.5641 31.2938 97.5885 31.1647 97.5833 31.035C97.5834 30.947 97.566 30.8599 97.5321 30.779C97.4982 30.6981 97.4485 30.6251 97.3861 30.5645C97.3237 30.5039 97.25 30.4569 97.1692 30.4264C97.0885 30.396 97.0024 30.3826 96.9165 30.3873C96.6165 30.3873 96.3998 30.6089 96.1331 30.8475L91.5659 35.0919V31.1884C91.582 31.0793 91.5748 30.9679 91.5449 30.8619C91.515 30.7558 91.463 30.6576 91.3926 30.574C91.3221 30.4903 91.2349 30.4232 91.1368 30.3772C91.0387 30.3312 90.9321 30.3073 90.8242 30.3073C90.7162 30.3073 90.6095 30.3312 90.5114 30.3772C90.4133 30.4232 90.3262 30.4903 90.2557 30.574C90.1853 30.6576 90.1334 30.7558 90.1034 30.8619C90.0735 30.9679 90.0663 31.0793 90.0824 31.1884V41.075C90.0663 41.1841 90.0735 41.2955 90.1034 41.4016C90.1334 41.5076 90.1853 41.6058 90.2557 41.6894C90.3262 41.7731 90.4133 41.8402 90.5114 41.8862C90.6095 41.9322 90.7162 41.956 90.8242 41.956C90.9321 41.956 91.0387 41.9322 91.1368 41.8862C91.2349 41.8402 91.3221 41.7731 91.3926 41.6894C91.463 41.6058 91.515 41.5076 91.5449 41.4016C91.5748 41.2955 91.582 41.1841 91.5659 41.075V36.5408L96.5665 41.6545C96.6582 41.7484 96.7674 41.8224 96.8877 41.8722C97.008 41.922 97.1368 41.9465 97.2666 41.9443M74.1471 26.927C74.6639 26.927 74.8473 26.552 74.9973 26.1429L78.331 16.6314C78.3932 16.4622 78.427 16.2836 78.431 16.1029C78.4311 16.0149 78.4137 15.9278 78.3798 15.847C78.3459 15.7661 78.2962 15.693 78.2338 15.6324C78.1714 15.5718 78.0977 15.5248 78.0169 15.4944C77.9362 15.4639 77.8502 15.4506 77.7642 15.4552C77.2142 15.4552 77.0642 15.8643 76.8808 16.4098L74.1638 24.4213L71.4135 16.3245C71.2634 15.8643 71.1135 15.4552 70.5468 15.4552C70.4608 15.4506 70.3748 15.4639 70.2941 15.4944C70.2133 15.5248 70.1395 15.5718 70.0771 15.6324C70.0147 15.693 69.965 15.7661 69.9312 15.847C69.8973 15.9278 69.8799 16.0149 69.88 16.1029C69.8911 16.2843 69.9305 16.4627 69.9967 16.6314L73.3304 26.1429C73.4637 26.552 73.6638 26.927 74.1805 26.927M86.5987 26.927C86.4357 26.9256 86.2775 26.87 86.1482 26.7685C86.0189 26.667 85.9253 26.5252 85.8819 26.3645L85.1818 24.4213H80.1812L79.4811 26.3645C79.4464 26.5268 79.3575 26.6716 79.2298 26.7742C79.102 26.8768 78.9435 26.9308 78.7811 26.927C78.693 26.9364 78.604 26.9273 78.5195 26.9002C78.435 26.8732 78.3568 26.8287 78.2897 26.7697C78.2226 26.7106 78.1679 26.6382 78.1292 26.5568C78.0904 26.4754 78.0683 26.3868 78.0642 26.2963C78.0864 26.0857 78.1369 25.8791 78.2143 25.6826V25.5974L81.548 16.3245C81.7814 15.762 82.1148 15.4552 82.5982 15.4552C82.8367 15.4624 83.0656 15.5524 83.2474 15.7104C83.4291 15.8684 83.5529 16.085 83.5983 16.3245L87.0154 25.6826C87.1003 25.8766 87.151 26.0843 87.1654 26.2963C87.1635 26.386 87.1435 26.4743 87.1066 26.5556C87.0696 26.637 87.0166 26.7096 86.9508 26.7689C86.885 26.8282 86.8078 26.8729 86.7242 26.9001C86.6407 26.9273 86.5525 26.9365 86.4653 26.927M80.7146 23.0746H84.7651L82.7648 17.2621L80.7146 23.0746ZM96.4832 26.9099C96.9666 26.9099 97.1833 26.6543 97.1833 26.0406V16.2393C97.1993 16.1302 97.1921 16.0188 97.1622 15.9127C97.1323 15.8067 97.0803 15.7085 97.0099 15.6248C96.9395 15.5412 96.8523 15.474 96.7542 15.428C96.6561 15.382 96.5494 15.3582 96.4415 15.3582C96.3336 15.3582 96.2269 15.382 96.1288 15.428C96.0307 15.474 95.9435 15.5412 95.8731 15.6248C95.8027 15.7085 95.7507 15.8067 95.7208 15.9127C95.6909 16.0188 95.6837 16.1302 95.6997 16.2393V24.1827L90.2657 16.1882C89.8657 15.6257 89.6823 15.4382 89.2656 15.4382C88.8489 15.4382 88.5656 15.745 88.5656 16.3075V26.1258C88.5495 26.235 88.5566 26.3464 88.5865 26.4524C88.6164 26.5585 88.6684 26.6567 88.7388 26.7403C88.8093 26.824 88.8965 26.8911 88.9946 26.9371C89.0927 26.9831 89.1994 27.0069 89.3074 27.0069C89.4153 27.0069 89.5219 26.9831 89.62 26.9371C89.7181 26.8911 89.8053 26.824 89.8758 26.7403C89.9462 26.6567 89.9981 26.5585 90.0281 26.4524C90.058 26.3464 90.0651 26.235 90.049 26.1258V18.2166L95.483 26.194C95.8497 26.7225 96.0665 26.9099 96.4832 26.9099Z" fill="#333333"/>
</svg>
